<svg id="Layer_3" enable-background="new 0 0 64 64" height="512" viewBox="0 0 64 64" width="512" xmlns="http://www.w3.org/2000/svg"><g><path d="m6.064 61.592 38.02-24.11c.79-.501 1.522-1.087 2.184-1.749l.005-.005c4.971-4.971 4.971-13.029 0-18-4.971-4.971-13.029-4.971-18 0l-.005.005c-.661.661-1.248 1.394-1.749 2.184l-24.11 38.02c-.664 1.047-.513 2.415.364 3.291.876.877 2.243 1.028 3.291.364z" fill="#e39854"/><path d="m50.906 4c.19.542.234 1.155.098 1.787-.69 3.213-2.607 6.147-5.33 8.156l-2.196 1.62-.018-.003-.669 4.44.209 1 9.528-9.527-.001-.001.001.001c.643-1.156 1.117-2.399 1.394-3.687.391-1.82-.709-3.48-2.486-3.749-.178-.026-.355-.038-.53-.037z" fill="#78b75b"/><path d="m60 13.094c-.542-.19-1.155-.234-1.787-.098-3.213.69-6.147 2.607-8.156 5.33l-1.62 2.196.003.018-4.44.669-1-.209 9.527-9.528.001.001-.001-.001c1.156-.643 2.399-1.117 3.687-1.394 1.82-.391 3.48.709 3.749 2.486.026.178.038.355.037.53z" fill="#669e4f"/><path d="m43.479 15.563 2.196-1.62c2.723-2.009 4.64-4.943 5.33-8.156.391-1.82-.709-3.48-2.486-3.749-1.931-.293-3.864 1.164-4.182 3.152-.154.96-.365 1.914-.633 2.859h.001c.338 1.618.391 3.309.139 4.979l-.384 2.532z" fill="#669e4f"/><path d="m55.952 20.297c.944-.268 1.899-.479 2.859-.633 1.988-.318 3.445-2.252 3.152-4.182-.269-1.777-1.929-2.877-3.749-2.486-3.213.69-6.147 2.607-8.156 5.33l-1.62 2.196.003.018 2.533-.382c1.669-.252 3.36-.199 4.978.139z" fill="#78b75b"/><path d="m44 21.209 6.973-1.052c3.346-.505 6.776.214 9.536 1.998 1.564 1.011 1.959 2.962.893 4.409-1.158 1.572-3.556 1.909-5.186.729-1.363-.987-2.838-1.841-4.399-2.547z" fill="#96cc7f"/><path d="m42.791 20 1.052-6.973c.505-3.346-.214-6.776-1.998-9.536-1.011-1.564-2.962-1.959-4.409-.893-1.572 1.158-1.909 3.556-.729 5.186.987 1.363 1.841 2.838 2.547 4.399z" fill="#96cc7f"/><g><path d="m41.994 34.999c-3.456 0-6.792-1.383-9.202-3.792-2.446-2.447-3.793-5.699-3.793-9.158l2-.05v.05c0 2.883 1.169 5.704 3.207 7.742 2.067 2.068 4.816 3.208 7.739 3.208.001 0 .002 0 .003-.001l.05 2c-.001.001-.002.001-.004.001z" fill="#c16b3f"/></g><g><path d="m34.995 39.999c-2.845 0-5.52-1.108-7.532-3.121l-.343-.343c-2.013-2.014-3.121-4.689-3.121-7.535l2-.001c0 2.312.9 4.486 2.536 6.121l.343.343c1.635 1.636 3.807 2.536 6.117 2.536.001 0 .002 0 .003-.001l.001 2c-.002.001-.003.001-.004.001z" fill="#c16b3f"/></g><g><path d="m28.998 44.998h-.464c-2.547 0-4.941-.991-6.742-2.791-1.8-1.801-2.792-4.195-2.793-6.743v-.465h2v.464c0 2.014.784 3.906 2.207 5.328 1.423 1.424 3.315 2.207 5.328 2.207h.464z" fill="#c16b3f"/></g><g><path d="m19.998 49.998h-1.584c-1.18 0-2.288-.458-3.122-1.291-.833-.834-1.292-1.943-1.292-3.122l-.001-1.586 2-.001.001 1.586c0 .646.25 1.252.706 1.707.456.456 1.062.707 1.708.707h1.584z" fill="#c16b3f"/></g><g><path d="m62.938 24.066c-.206-1.125-.875-2.104-1.885-2.755-.477-.308-.975-.576-1.483-.824 2.211-.667 3.728-2.886 3.383-5.16-.169-1.113-.761-2.071-1.667-2.697-.104-.072-.221-.119-.33-.18-.002-.013-.001-.026-.003-.04-.169-1.113-.761-2.071-1.667-2.697-.941-.651-2.107-.868-3.28-.617-.515.11-1.022.25-1.522.418.168-.5.308-1.009.418-1.522.252-1.174.033-2.339-.617-3.28-.626-.906-1.584-1.498-2.699-1.667-.013-.002-.025-.003-.039-.004-.061-.109-.108-.225-.179-.329-.626-.906-1.584-1.498-2.697-1.667-2.269-.341-4.493 1.172-5.16 3.382-.248-.507-.515-1.005-.823-1.482-.652-1.01-1.631-1.679-2.756-1.885-1.081-.194-2.182.061-3.087.729-2.018 1.486-2.45 4.499-.945 6.578.947 1.309 1.77 2.729 2.446 4.225l.211.466c-4.051-.387-8.054 1.024-10.994 3.964-.712.713-1.347 1.506-1.886 2.355l-24.111 38.019c-.922 1.452-.716 3.317.501 4.534.709.708 1.638 1.074 2.576 1.074.673 0 1.352-.188 1.958-.573l38.021-24.11c.85-.539 1.643-1.174 2.36-1.891 2.936-2.936 4.348-6.936 3.96-10.989l.465.21c1.495.677 2.916 1.499 4.225 2.446.838.606 1.828.898 2.809.898 1.451 0 2.882-.64 3.77-1.844.667-.905.926-2.002.727-3.085zm-4.283-5.394c-.909.145-1.826.35-2.731.597-1.657-.318-3.378-.364-5.097-.105l-.166.025.203-.275c1.852-2.508 4.607-4.311 7.562-4.945.635-.134 1.242-.026 1.725.307.447.309.741.789.826 1.352.21 1.39-.874 2.812-2.322 3.044zm-2.229-7.62c.635-.134 1.242-.026 1.725.307.222.153.405.349.545.575-.229.013-.458.03-.69.079-3.476.747-6.583 2.776-8.75 5.714l-1.391 1.884-2.429.366 7.694-7.694c1.049-.571 2.157-.987 3.296-1.231zm-4.441-5.061c.049-.231.066-.46.08-.688.226.14.422.323.575.544.333.482.442 1.095.307 1.725-.245 1.141-.662 2.25-1.234 3.298l-7.692 7.692.366-2.43 1.883-1.39c2.939-2.167 4.968-5.274 5.715-8.751zm-6.659-.648c.231-1.448 1.668-2.521 3.045-2.321.562.085 1.043.379 1.352.826.333.482.442 1.095.307 1.724-.635 2.955-2.438 5.711-4.946 7.562l-.274.202.025-.165c.259-1.719.213-3.441-.105-5.098.246-.904.451-1.821.596-2.73zm-7.806 1.85c-.859-1.188-.621-2.961.512-3.795.359-.265.773-.403 1.193-.403.115 0 .231.011.347.032.576.105 1.087.461 1.437 1.002 1.64 2.538 2.313 5.761 1.849 8.844l-.548 3.627-2.143-4.734c-.73-1.617-1.622-3.155-2.647-4.573zm8.042 27.828c-.608.609-1.285 1.151-2.012 1.612l-38.02 24.11c-.655.416-1.497.323-2.048-.228-.55-.55-.644-1.392-.228-2.048l24.11-38.021c.461-.727 1.003-1.403 1.617-2.017 2.79-2.792 6.711-3.955 10.56-3.194l2.34 5.172c.051.112.125.206.209.289l-.005.005 1.209 1.209.004-.004c.083.084.179.156.291.207l5.172 2.34c.762 3.854-.401 7.771-3.199 10.568zm15.038-9.054c-.834 1.133-2.606 1.373-3.795.512-1.418-1.025-2.956-1.917-4.572-2.647l-4.734-2.143 3.627-.547c3.084-.465 6.306.208 8.844 1.85.541.349.896.859 1.002 1.436.097.534-.035 1.081-.372 1.539z"/><path d="m34.21 29.789c-2.068-2.069-3.207-4.819-3.207-7.744v-.049l-2 .049c0 3.459 1.347 6.711 3.793 9.158 2.446 2.445 5.698 3.792 9.206 3.792l-.049-2c-2.925 0-5.675-1.139-7.743-3.206z"/><path d="m28.539 35.116c-1.636-1.635-2.536-3.809-2.536-6.12h-2c0 2.846 1.108 5.521 3.121 7.535l.343.343c2.014 2.013 4.689 3.121 7.535 3.121v-2c-2.312 0-4.485-.9-6.12-2.536z"/><path d="m23.21 40.789c-1.424-1.425-2.207-3.317-2.207-5.329v-.464h-2v.464c0 2.546.991 4.94 2.793 6.743 1.802 1.801 4.196 2.792 6.742 2.792h.464v-2h-.464c-2.012 0-3.904-.783-5.328-2.206z"/><path d="m16.71 47.289c-.456-.457-.707-1.063-.707-1.709v-1.584h-2v1.584c0 1.179.458 2.287 1.293 3.123.835.834 1.943 1.292 3.122 1.292h1.584v-2h-1.584c-.646 0-1.252-.251-1.708-.706z"/></g></g></svg>