<svg height="512pt" viewBox="0 0 512 512" width="512pt" xmlns="http://www.w3.org/2000/svg"><path d="m273.054688 332h-258.054688c-8.285156 0-15-6.714844-15-15s6.714844-15 15-15h258.054688c8.285156 0 15 6.714844 15 15s-6.714844 15-15 15zm0 0" fill="#007bff"/><path d="m239.984375 119.59375c-.003906-.140625-.003906-.277344-.011719-.414062-.023437-.394532-.058594-.785157-.113281-1.171876-.015625-.136718-.042969-.277343-.066406-.414062-.046875-.292969-.105469-.585938-.171875-.875-.03125-.140625-.058594-.28125-.097656-.421875-.097657-.386719-.210938-.769531-.339844-1.144531-.042969-.117188-.089844-.238282-.132813-.355469-.128906-.34375-.265625-.679687-.417969-1.011719-.035156-.070312-.0625-.144531-.097656-.214844-.1875-.398437-.402344-.789062-.628906-1.171874-.023438-.042969-.042969-.085938-.066406-.128907-.027344-.042969-.058594-.082031-.085938-.125-.234375-.378906-.480468-.75-.75-1.105469-.039062-.054687-.082031-.105468-.125-.160156-.226562-.292968-.464844-.578125-.714844-.859375-.085937-.09375-.171874-.195312-.261718-.285156-.273438-.292969-.558594-.570313-.855469-.839844-.101563-.09375-.210937-.183593-.316406-.273437-.226563-.191406-.457031-.378906-.695313-.554688-.117187-.089844-.234375-.179687-.351562-.265625-.296875-.207031-.59375-.410156-.90625-.597656l-.15625-.097656c-.015625-.007813-.03125-.015625-.046875-.027344l-74.550781-45.199219c-4.765626-2.890625-10.742188-2.898437-15.515626-.023437l-75.066406 45.21875c-.027344.015625-.054687.03125-.078125.046875l-.101562.058594c-.320313.191406-.625.398437-.925781.609374-.125.089844-.25.183594-.371094.277344-.234375.175782-.464844.359375-.6875.550782-.105469.089843-.214844.175781-.316406.269531-.296876.269531-.582032.546875-.855469.835937-.089844.097656-.179688.199219-.269531.296875-.25.285157-.496094.574219-.726563.875-.035156.046875-.074219.089844-.109375.136719-.269531.355469-.515625.730469-.75 1.109375-.027344.046875-.0625.085937-.089844.128906-.023437.042969-.042968.085938-.066406.125-.226562.382813-.4375.769531-.628906 1.171875-.035156.074219-.066406.152344-.101563.230469-.148437.324219-.289062.660156-.414062 1-.042969.117187-.089844.234375-.128907.351563-.128906.378906-.246093.757812-.34375 1.144531-.039062.140625-.066406.285156-.097656.425781-.066406.289062-.125.582031-.171875.875-.023437.136719-.050781.273438-.070312.414062-.050781.386719-.085938.777344-.109375 1.171876-.007813.136718-.011719.273437-.015625.414062-.003907.144531-.011719.289062-.011719.4375v90.644531c0 5.203125 2.691406 10.03125 7.117188 12.761719l75 46.324219c.152343.09375.308593.179687.464843.265625.125.074218.25.148437.382813.21875.355468.1875.714844.363281 1.082031.523437.140625.058594.28125.109375.425781.167969.261719.105469.527344.203125.796875.292969.15625.050781.316407.101562.476563.152343.371094.109376.742187.207032 1.121094.289063.101562.019531.203124.035156.304687.054687.363281.070313.730469.125 1.09375.167969.128906.015625.257813.027344.386719.039063.449218.042968.898437.070312 1.347656.070312s.894531-.027344 1.34375-.070312c.128906-.011719.257812-.023438.386719-.039063.367187-.042969.734375-.097656 1.09375-.167969.105469-.015624.207031-.035156.308593-.054687.375-.082031.75-.179687 1.121094-.289063.160156-.050781.316406-.101562.476563-.152343.265625-.089844.535156-.1875.796875-.292969.140625-.054688.285156-.109375.425781-.167969.363281-.160156.726563-.335937 1.082031-.523437.128906-.070313.253906-.144532.382813-.21875.152343-.085938.3125-.171875.464843-.265625l75-46.324219c4.421876-2.730469 7.117188-7.558594 7.117188-12.761719v-90.644531c0-.148438-.011719-.292969-.015625-.4375zm-89.761719-27.363281 45.8125 27.777343-46.035156 27.816407-45.964844-27.773438zm-60.222656 54.390625 45 27.191406v56.292969l-45-27.792969zm75 83.484375v-56.289063l45-27.195312v55.691406zm0 0" fill="#ff0b69"/><path d="m407 121h-60c-8.285156 0-15-6.714844-15-15s6.714844-15 15-15h60c8.285156 0 15 6.714844 15 15s-6.714844 15-15 15zm0 0" fill="#c5c9f7"/><path d="m407 181h-60c-8.285156 0-15-6.714844-15-15s6.714844-15 15-15h60c8.285156 0 15 6.714844 15 15s-6.714844 15-15 15zm0 0" fill="#c5c9f7"/><path d="m377 422c-24.8125 0-45-20.1875-45-45s20.1875-45 45-45 45 20.1875 45 45-20.1875 45-45 45zm0-60c-8.269531 0-15 6.730469-15 15s6.730469 15 15 15 15-6.730469 15-15-6.730469-15-15-15zm0 0" fill="#007bff"/><path d="m180 423.507812c-34.191406 6.96875-60 37.273438-60 73.492188 0 8.285156 6.714844 15 15 15h242.113281c8.285157 0 15-6.714844 15-15s-6.714843-15-15-15h-224.542969c6.191407-17.460938 22.875-30 42.429688-30h78.054688c8.285156 0 15-6.714844 15-15s-6.714844-15-15-15h-63.054688v-30h-30zm0 0" fill="#007bff"/><path d="m467 0h-422c-24.8125 0-45 20.1875-45 45v302c0 24.8125 20.1875 45 45 45h212c8.285156 0 15-6.714844 15-15s-6.714844-15-15-15h-212c-8.269531 0-15-6.730469-15-15v-302c0-8.269531 6.730469-15 15-15h422c8.269531 0 15 6.730469 15 15v302c0 1.707031-.28125 3.375-.835938 4.953125-2.734374 7.820313 1.390626 16.378906 9.207032 19.113281 7.828125 2.738282 16.378906-1.386718 19.113281-9.207031 1.667969-4.769531 2.515625-9.769531 2.515625-14.859375v-302c0-24.8125-20.1875-45-45-45zm0 0" fill="#0050c7"/><path d="m377 512c-74.4375 0-135-60.5625-135-135s60.5625-135 135-135 135 60.5625 135 135-60.5625 135-135 135zm0-240c-57.898438 0-105 47.101562-105 105s47.101562 105 105 105 105-47.101562 105-105-47.101562-105-105-105zm0 0" fill="#7986e8"/></svg>